<?xml version="1.0" standalone="no"?>
<svg xmlns:xlink="http://www.w3.org/1999/xlink" id="wave" style="transform:rotate(0deg); transition: 0.3s" viewBox="0 0 1440 450" version="1.1" xmlns="http://www.w3.org/2000/svg"><defs><linearGradient id="sw-gradient-0" x1="0" x2="0" y1="1" y2="0"><stop stop-color="rgba(102, 187, 106, 0.68)" offset="0%"/><stop stop-color="rgba(26.812, 241.652, 36.922, 0.19)" offset="100%"/></linearGradient></defs><path style="transform:translate(0, 0px); opacity:1" fill="url(#sw-gradient-0)" d="M0,90L110.8,180L221.5,315L332.3,0L443.1,270L553.8,360L664.6,180L775.4,225L886.2,405L996.9,0L1107.7,90L1218.5,180L1329.2,360L1440,90L1550.8,360L1661.5,45L1772.3,45L1883.1,360L1993.8,135L2104.6,225L2215.4,90L2326.2,225L2436.9,45L2547.7,360L2658.5,45L2658.5,450L2547.7,450L2436.9,450L2326.2,450L2215.4,450L2104.6,450L1993.8,450L1883.1,450L1772.3,450L1661.5,450L1550.8,450L1440,450L1329.2,450L1218.5,450L1107.7,450L996.9,450L886.2,450L775.4,450L664.6,450L553.8,450L443.1,450L332.3,450L221.5,450L110.8,450L0,450Z"/></svg>